<svg id="그룹_3494" data-name="그룹 3494" xmlns="http://www.w3.org/2000/svg" xmlns:xlink="http://www.w3.org/1999/xlink" width="126.084" height="8.171" viewBox="0 0 126.084 8.171">
  <defs>
    <clipPath id="clip-path">
      <rect id="사각형_5476" data-name="사각형 5476" width="126.084" height="8.171" fill="#fff"/>
    </clipPath>
  </defs>
  <g id="그룹_3416" data-name="그룹 3416" transform="translate(0 0)" clip-path="url(#clip-path)">
    <path id="패스_1569" data-name="패스 1569" d="M20.348,5.624c3.406,0,6.813.063,10.219-.012,9.462-.209,18.924-.5,28.387-.71C63.969,4.793,68.988,4.64,74,4.782c8.478.241,16.953.667,25.427,1.079,5.064.247,10.124.638,15.187.917a9.658,9.658,0,0,0,4.515-.41c-.155.3-.274.775-.471.854a8.848,8.848,0,0,1-2.845.9c-2.894.085-5.792.045-8.686-.082C101.6,7.8,96.073,7.392,90.543,7.187,82.222,6.88,73.9,6.5,65.574,6.5c-8.893.006-17.785.535-26.679.633-7.342.081-14.685-.091-22.027-.237-3.307-.066-6.614-.312-9.919-.533-1.341-.09-2.678-.322-4.014-.518a3.656,3.656,0,0,1-.825-.4c.794-.865,1.823.2,2.322-1.071a1.829,1.829,0,0,0,1.847.688c2.632-.179,5.267-.3,7.9-.537C22.019,3.813,29.858,3.056,37.7,2.316a2.467,2.467,0,0,0,1.229-.353c-3.187,0-6.373-.04-9.56.011-3.309.054-6.618.2-9.926.3-3.257.1-6.515.145-9.77.3a78.684,78.684,0,0,1-9.635.2c-.012-.2-.024-.4-.036-.606a3.008,3.008,0,0,1,.734-.223C11.019,1.5,21.3,1.016,31.587.666c9.1-.309,18.2-.587,27.3-.649,8.531-.058,17.066.025,25.593.34,8.32.307,16.635.931,24.948,1.522,5.059.359,10.111.915,15.165,1.4a2.441,2.441,0,0,1,1.49.64c-1.432.08-2.864.26-4.295.224-8.944-.229-17.886-.573-26.831-.752-12.357-.247-24.714-.867-37.076-.24-6.51.329-13.029.327-19.54.655-5.988.3-11.971.842-17.955,1.277-.013.182-.026.363-.039.544M40.672,1.657c0,.058,0,.115,0,.173h7.855c0-.058,0-.115,0-.173Z" transform="translate(0 0)" fill="#fff"/>
  </g>
</svg>
