<svg width="32" height="32" viewBox="0 0 32 32" xmlns="http://www.w3.org/2000/svg">
<path d="M12.715 22.8539C12.9595 23.0984 12.9815 23.4807 12.7817 23.75L12.715 23.827L11.7435 24.7982C11.4748 25.0669 11.039 25.0669 10.77 24.7982C10.5256 24.5538 10.5035 24.1714 10.7034 23.9022L10.77 23.8251L11.7416 22.8536C12.0103 22.585 12.4461 22.585 12.715 22.8536V22.8539ZM10.9325 21.0676C11.1769 21.312 11.199 21.6941 10.9991 21.9636L10.9325 22.0407L8.66123 24.3118C8.39253 24.5805 7.95673 24.5805 7.68776 24.3118C7.4433 24.0674 7.42127 23.685 7.62114 23.4158L7.68776 23.3387L9.959 21.0679C10.2277 20.7992 10.6635 20.7992 10.9325 21.0679V21.0676ZM22.0257 7.21034L22.2616 7.27861L22.8692 7.46718C23.6062 7.69594 24.1948 8.24789 24.4726 8.96087L24.5312 9.12825L24.7206 9.73772C25.3792 11.856 24.8528 14.1582 23.3557 15.7786L23.1853 15.9558L22.2696 16.8714C23.1745 18.078 23.1184 19.7771 22.1011 20.9225L21.969 21.0626L20.8287 22.2029C20.5845 22.4473 20.2021 22.4693 19.9326 22.2695L19.8555 22.2029L18.3967 20.7441L18.2345 20.9063C17.6443 21.4965 16.7088 21.5312 16.0778 21.0103L15.9633 20.9063L15.5071 20.4501L14.7748 21.7302C14.6683 21.9163 14.4811 22.0421 14.2686 22.0707C14.0915 22.0944 13.9134 22.0482 13.7714 21.9444L13.6907 21.8753L10.1217 18.3065C9.97001 18.1548 9.8976 17.9409 9.92624 17.7281C9.95074 17.5459 10.0468 17.3824 10.1914 17.2722L10.2673 17.2219L11.548 16.4915L11.0935 16.037C10.5033 15.4468 10.4686 14.5114 10.9894 13.8807L11.0935 13.7662L11.2584 13.6013L9.7985 12.1415C9.55403 11.8971 9.532 11.515 9.73187 11.2455L9.7985 11.1684L10.9388 10.0281C12.0367 8.93032 13.7325 8.79433 14.9783 9.62018L15.1316 9.72836L16.0456 8.81442C17.6137 7.2464 19.8954 6.6405 22.0257 7.21034ZM9.14796 19.2832C9.41665 19.5519 9.41665 19.9877 9.14796 20.2566L8.1745 21.2297C7.9058 21.4984 7.47 21.4984 7.20103 21.2297C6.93234 20.9611 6.93234 20.5253 7.20103 20.2566L8.1745 19.2832C8.44319 19.0145 8.87899 19.0145 9.14796 19.2832ZM21.2785 17.8625L19.3699 19.7707L20.342 20.7428L20.9955 20.0892C21.5993 19.4855 21.6937 18.565 21.2785 17.8625ZM12.5573 17.5005L11.7328 17.9706L14.0271 20.2649L14.4982 19.4412L12.5573 17.5005ZM17.1801 9.63367L17.0191 9.78755L12.067 14.7394C11.9924 14.814 11.98 14.9274 12.0295 15.0149L12.067 15.0639L16.9368 19.9334C17.0114 20.008 17.1248 20.0204 17.2123 19.9709L17.2614 19.9334L22.2124 14.9827C23.4251 13.7701 23.8978 12.0094 23.4677 10.3607L23.4066 10.1462L23.2172 9.53677C23.1176 9.21606 22.8833 8.95729 22.5791 8.82516L22.4618 8.78166L21.8542 8.59309C20.217 8.08492 18.4394 8.48628 17.1807 9.63367H17.1801ZM20.0199 11.9807C20.9157 12.8765 20.9157 14.3292 20.0199 15.225C19.124 16.1207 17.6713 16.1207 16.7754 15.225C15.8793 14.3292 15.8793 12.8765 16.7754 11.9807C17.6713 11.085 19.124 11.085 20.0199 11.9807ZM17.7486 12.9541C17.3902 13.3126 17.3902 13.8934 17.7486 14.2518C18.1071 14.6103 18.688 14.6103 19.0464 14.2518C19.4048 13.8934 19.4048 13.3126 19.0464 12.9541C18.688 12.5957 18.1071 12.5957 17.7486 12.9541ZM12.029 10.8939L11.912 11.0013L11.2584 11.6548L12.2319 12.6279L14.1408 10.7191C13.4817 10.3288 12.6308 10.3871 12.0293 10.8936L12.029 10.8939Z" fill="white"/>
</svg>