<svg width="32" height="32" viewBox="0 0 32 32" xmlns="http://www.w3.org/2000/svg">
<path d="M9.54975 16.6497C10.9658 14.2645 13.568 12.6665 16.5415 12.6665C21.0287 12.6665 24.6665 16.3042 24.6665 20.7915C24.6665 21.3898 25.1514 21.8747 25.7497 21.8747C26.348 21.8747 26.8329 21.3898 26.8329 20.7915C26.8329 15.1075 22.2251 10.4997 16.5411 10.4997C13.0945 10.4997 10.0454 12.1933 8.17792 14.7926L7.59617 11.4935C7.49217 10.9043 6.93025 10.5107 6.34102 10.6147C5.7518 10.7187 5.35822 11.2807 5.46222 11.8699L6.59095 18.2711C6.641 18.5542 6.80122 18.8057 7.03652 18.9705C7.34397 19.1856 7.75282 19.225 8.09342 19.1063L14.247 18.0212C14.8362 17.9172 15.2298 17.3556 15.1258 16.7663C15.0218 16.1771 14.4598 15.7835 13.8706 15.8875L9.54877 16.6497H9.54975Z" fill="black"/>
</svg>
