<svg width="32" height="32" viewBox="0 0 32 32"  xmlns="http://www.w3.org/2000/svg">
<path d="M19.5464 7.07702C19.7663 7.20842 19.8689 7.47907 19.794 7.72948L17.8294 14.3126H21.4543C21.7556 14.3126 21.9998 14.5641 22 14.8748C22 15.0184 21.947 15.1565 21.8514 15.2609L13.1245 24.8229C12.9181 25.0492 12.5729 25.06 12.3534 24.8474C12.2018 24.7002 12.1444 24.4768 12.206 24.2716L14.1706 17.6874H10.5457C10.2444 17.6876 10 17.4359 10 17.1252C10 16.9816 10.053 16.8435 10.1486 16.7391L18.8755 7.17714C19.0492 6.9868 19.3272 6.94473 19.5464 7.0759V7.07702Z" fill="var(--ion-color-primary)"/>
</svg>
