<svg xmlns="http://www.w3.org/2000/svg" xmlns:xlink="http://www.w3.org/1999/xlink" width="18" height="18" viewBox="0 0 18 18">
  <g id="그룹_5513" data-name="그룹 5513" clip-path="url(#clip-path)">
    <path id="패스_2811" data-name="패스 2811" d="M10.367,16.2a1.271,1.271,0,0,1-1.11-.666L6.217,10.067l-.072-.072-5.433-3A1.332,1.332,0,0,1,0,5.883,1.282,1.282,0,0,1,.889,4.606L2.737,3.99a.559.559,0,0,1,.372,1.054l-1.876.616a.178.178,0,0,0-.033.327L6.672,9.029h0a1.282,1.282,0,0,1,.5.5L10.212,15h0a.179.179,0,0,0,.327-.028L15.084,1.349a.172.172,0,0,0-.044-.183.177.177,0,0,0-.183-.044L6.533,3.9a.556.556,0,1,1-.355-1.054L14.5.067A1.287,1.287,0,0,1,16.133,1.7L11.6,15.316a1.276,1.276,0,0,1-1.11.877Z" transform="translate(0.9 0.898)" fill="inherit"/>
  </g>
</svg>
