<svg xmlns="http://www.w3.org/2000/svg" width="32" height="32" viewBox="0 0 32 32">
  <g id="그룹_5153" data-name="그룹 5153" transform="translate(-9640 -3795)">
    <g id="noun-time-5804450" transform="translate(9642.922 3797.95)">
      <g id="그룹_5151" data-name="그룹 5151" transform="translate(3.078 3.05)">
        <g id="그룹_5150" data-name="그룹 5150" transform="translate(0 0)">
          <g id="그룹_5149" data-name="그룹 5149">
            <path id="패스_2777" data-name="패스 2777" d="M245.461,51.871a.774.774,0,0,1,1.527.248,10,10,0,1,1-.014-3.332.774.774,0,0,1-1.526.261,8.459,8.459,0,1,0,.012,2.822Z" transform="translate(-226.999 -40.495)" fill="#fff" fill-rule="evenodd"/>
          </g>
          <path id="패스_2778" data-name="패스 2778" d="M235.674,45.8a.8.8,0,0,1,1.61,0v5.588a.8.8,0,0,1-.8.8H230.8a.8.8,0,0,1,0-1.61h4.869Z" transform="translate(-225.907 -40.918)" fill="#fff" fill-rule="evenodd"/>
        </g>
      </g>
    </g>
    <g id="그룹_5152" data-name="그룹 5152" transform="translate(2633.73 -466.27)">
      <g id="그룹_5109" data-name="그룹 5109" transform="translate(7006 4261)">
        <rect id="사각형_5990" data-name="사각형 5990" width="32" height="32" transform="translate(0.27 0.27)" fill="#ccc" opacity="0"/>
        <g id="그룹_5043" data-name="그룹 5043" transform="translate(5.994 5.994)">
          <rect id="사각형_5985" data-name="사각형 5985" width="20" height="20" transform="translate(0.275 0.275)" fill="#ccc" opacity="0"/>
        </g>
      </g>
    </g>
  </g>
</svg>
