<svg id="그룹_5057" data-name="그룹 5057" xmlns="http://www.w3.org/2000/svg" width="26" height="26" viewBox="0 0 26 26">
  <rect id="사각형_5990" data-name="사각형 5990" width="26" height="26" fill="inherit" opacity="0"/>
  <g id="그룹_5043" data-name="그룹 5043" transform="translate(5 5)">
    <rect id="사각형_5985" data-name="사각형 5985" width="16" height="16" fill="inherit" opacity="0"/>
  </g>
  <g id="noun-friend-2391919" transform="translate(4.79 4.79)">
    <g id="그룹_5056" data-name="그룹 5056" transform="translate(0 0)">
      <path id="패스_2750" data-name="패스 2750" d="M14.613,9.115a4.1,4.1,0,1,0-6.565-4.6,4.1,4.1,0,0,0-2.265,7.067A6.328,6.328,0,0,0,2,17.594a.821.821,0,0,0,.821.821H14.309a.821.821,0,0,0,.821-.821,7.24,7.24,0,0,0-.2-1.642h2.659a.821.821,0,0,0,.821-.821,6.328,6.328,0,0,0-3.8-6.016ZM11.847,3.641a2.462,2.462,0,0,1,.821,4.777A4.1,4.1,0,0,0,9.853,4.683a2.462,2.462,0,0,1,1.994-1.042Zm-4.1,2.61a2.462,2.462,0,0,1,3.283,2.159c0,.049,0,.107,0,.156v.049A2.481,2.481,0,1,1,7.744,6.251Zm5.687,10.523H3.7a4.654,4.654,0,0,1,1.74-3.086,4.76,4.76,0,0,1,2.011-.9,5.686,5.686,0,0,1,1.116-.115,4.842,4.842,0,0,1,3.783,1.642,4.621,4.621,0,0,1,.895,1.642,5.246,5.246,0,0,1,.189.821Zm.878-2.462a6.114,6.114,0,0,0-2.987-2.733,4.178,4.178,0,0,0,.977-1.371,4.621,4.621,0,0,1,4.415,4.1Z" transform="translate(-1.995 -1.994)" fill="inherit"/>
    </g>
  </g>
</svg>
