<svg xmlns="http://www.w3.org/2000/svg" width="32" height="32" viewBox="0 0 32 32">
  <rect id="사각형_5990" data-name="사각형 5990" width="32" height="32" transform="translate(0.196 0.196)" fill="inherit" opacity="0"/>
  <g id="그룹_5043" data-name="그룹 5043" transform="translate(5.967 5.967)">
    <rect id="사각형_5985" data-name="사각형 5985" width="20" height="20" transform="translate(0.229 0.229)" fill="inherit" opacity="0"/>
  </g>
  <path id="패스_2811" data-name="패스 2811" d="M405.579,220.453l-2.785-2.785-.2-.222H398.06l-.222.222-2.243,2.243-2.243-2.243-.222-.222h-4.56l-.222.222-2.785,2.761-.221.216v4.511l.222.222,9.507,9.507v.033h.034l.492.492.518-.518,9.465-9.514.222-.222v-4.482Zm-2.39,3.108v-1.292l1.871-.764v2.788Zm-7.6,6.735-6.622-6.6v-1.557l1.087-1.087h1.559L395.6,225l3.953-3.952h1.535l1.1,1.089V223.7Zm-7.622-8.03v1.3l-1.866.777V221.5Zm-1.474-1.688,2-2,.763,1.856-.909.91Zm12.255-.144-2.665,2.663-.016-2.6,1.918-1.918Zm-3.665,2.655-2.673-2.655.769-1.874,1.888,1.888Zm-5.666-4.9h2.834l-.766,1.866h-1.3Zm9.489,0h2.868l-.817,1.866h-1.284Zm2.974,2.251.8-1.838,1.984,1.985-1.867.762Zm-15.4,4.836,1.868-.778,6.738,6.715-.017,2.674Zm9.589,8.646.017-2.708,6.719-6.723,1.9.745Z" transform="translate(-379.57 -210.823)" fill="ihherit"/>
</svg>
