<svg width="36" height="36" viewBox="0 0 36 36"  xmlns="http://www.w3.org/2000/svg">
<rect width="36" height="36" fill="none"/>
<path d="M11.9895 17.4041C9.11602 17.4041 6.78198 15.07 6.78198 12.1965C6.78198 9.32302 9.11602 7 11.9895 7C14.863 7 17.1971 9.33403 17.1971 12.2075C17.1971 15.081 14.863 17.4151 11.9895 17.4151V17.4041ZM11.9895 9.20192C10.3381 9.20192 8.9839 10.5451 8.9839 12.2075C8.9839 13.87 10.3271 15.2132 11.9895 15.2132C13.652 15.2132 14.9951 13.87 14.9951 12.2075C14.9951 10.5451 13.652 9.20192 11.9895 9.20192Z"/>
<path d="M21.3918 28.81H2.57642V27.709C2.57642 22.5235 6.79309 18.2958 11.9896 18.2958C17.1751 18.2958 21.3918 22.5235 21.4028 27.698V28.799L21.3918 28.81ZM4.8554 26.6081H19.1018C18.5623 23.1621 15.5787 20.5088 11.9786 20.4978C8.37847 20.4978 5.39487 23.1511 4.8554 26.6081Z"/>
<path d="M24.1992 17.4041C21.3257 17.4041 18.9917 15.07 18.9917 12.1965C18.9917 9.32302 21.3257 7 24.1992 7C27.0727 7 29.4068 9.33403 29.4068 12.2075C29.4068 15.081 27.0727 17.4151 24.1992 17.4151V17.4041ZM24.1992 9.20192C22.5478 9.20192 21.1936 10.5451 21.1936 12.2075C21.1936 13.87 22.5368 15.2132 24.1992 15.2132C25.8617 15.2132 27.2049 13.87 27.2049 12.2075C27.2049 10.5451 25.8617 9.20192 24.1992 9.20192Z"/>
<path d="M33.6124 28.81H23.0322V26.6081H31.3335C30.805 23.1511 27.8104 20.4978 24.2103 20.4978C23.0322 20.4978 21.8652 20.795 20.8303 21.3455L19.7954 19.3968C21.1496 18.6812 22.6799 18.2958 24.2103 18.2958C29.3958 18.2958 33.6235 22.5125 33.6235 27.709V28.81H33.6124Z"/>
</svg>
