     <svg
            id="그룹_1263"
            data-name="그룹 1263"
            xmlns="http://www.w3.org/2000/svg"
            xmlns:xlink="http://www.w3.org/1999/xlink"
            width="34.962"
            height="19.468"
            viewBox="0 0 34.962 19.468"
          >
            <defs>
              <clipPath id="clip-path">
                <rect
                  id="사각형_4689"
                  data-name="사각형 4689"
                  width="34.962"
                  height="19.468"
                  fill="#fff"
                />
              </clipPath>
            </defs>
            <g id="그룹_1262" data-name="그룹 1262" clip-path="url(#clip-path)">
              <path
                id="패스_978"
                data-name="패스 978"
                d="M95.714,98.748a1.777,1.777,0,1,1,1.776-1.776,1.777,1.777,0,0,1-1.776,1.776"
                transform="translate(-78.232 -79.28)"
                fill="#fff"
              />
              <path
                id="패스_979"
                data-name="패스 979"
                d="M95.714,67.793a1.777,1.777,0,1,1,1.776-1.776,1.777,1.777,0,0,1-1.776,1.776"
                transform="translate(-78.232 -53.5)"
                fill="#fff"
              />
              <path
                id="패스_980"
                data-name="패스 980"
                d="M95.714,36.839a1.777,1.777,0,1,1,1.776-1.776,1.777,1.777,0,0,1-1.776,1.776"
                transform="translate(-78.232 -27.721)"
                fill="#fff"
              />
              <path
                id="패스_981"
                data-name="패스 981"
                d="M95.714,5.884A1.777,1.777,0,1,1,97.49,4.108a1.777,1.777,0,0,1-1.776,1.776"
                transform="translate(-78.232 -1.941)"
                fill="#fff"
              />
              <path
                id="패스_982"
                data-name="패스 982"
                d="M189.652,4.911a1.777,1.777,0,1,1,1.776-1.776,1.777,1.777,0,0,1-1.776,1.776"
                transform="translate(-156.466 -1.131)"
                fill="#fff"
              />
              <path
                id="패스_983"
                data-name="패스 983"
                d="M127.027,66.821a1.777,1.777,0,1,1,1.777-1.776,1.776,1.776,0,0,1-1.777,1.776"
                transform="translate(-104.311 -52.691)"
                fill="#fff"
              />
              <path
                id="패스_984"
                data-name="패스 984"
                d="M127.027,35.866A1.777,1.777,0,1,1,128.8,34.09a1.776,1.776,0,0,1-1.777,1.776"
                transform="translate(-104.311 -26.911)"
                fill="#fff"
              />
              <path
                id="패스_985"
                data-name="패스 985"
                d="M127.027,4.911A1.777,1.777,0,1,1,128.8,3.135a1.776,1.776,0,0,1-1.777,1.776"
                transform="translate(-104.311 -1.131)"
                fill="#fff"
              />
              <path
                id="패스_986"
                data-name="패스 986"
                d="M64.4,66.821a1.777,1.777,0,1,0-1.776-1.776A1.776,1.776,0,0,0,64.4,66.821"
                transform="translate(-52.156 -52.691)"
                fill="#fff"
              />
              <path
                id="패스_987"
                data-name="패스 987"
                d="M64.4,35.866a1.777,1.777,0,1,0-1.776-1.776A1.776,1.776,0,0,0,64.4,35.866"
                transform="translate(-52.156 -26.911)"
                fill="#fff"
              />
              <path
                id="패스_988"
                data-name="패스 988"
                d="M64.4,4.911a1.777,1.777,0,1,0-1.776-1.776A1.776,1.776,0,0,0,64.4,4.911"
                transform="translate(-52.156 -1.131)"
                fill="#fff"
              />
              <path
                id="패스_989"
                data-name="패스 989"
                d="M158.34,35.866a1.777,1.777,0,1,1,1.776-1.776,1.777,1.777,0,0,1-1.776,1.776"
                transform="translate(-130.388 -26.911)"
                fill="#fff"
              />
              <path
                id="패스_990"
                data-name="패스 990"
                d="M158.34,4.911a1.777,1.777,0,1,1,1.776-1.776,1.776,1.776,0,0,1-1.776,1.776"
                transform="translate(-130.388 -1.131)"
                fill="#fff"
              />
              <path
                id="패스_991"
                data-name="패스 991"
                d="M33.089,35.866a1.777,1.777,0,1,0-1.776-1.776,1.777,1.777,0,0,0,1.776,1.776"
                transform="translate(-26.078 -26.911)"
                fill="#fff"
              />
              <path
                id="패스_992"
                data-name="패스 992"
                d="M33.089,4.911a1.777,1.777,0,1,0-1.776-1.776,1.776,1.776,0,0,0,1.776,1.776"
                transform="translate(-26.078 -1.131)"
                fill="#fff"
              />
              <path
                id="패스_993"
                data-name="패스 993"
                d="M1.776,3.553A1.777,1.777,0,1,0,0,1.777,1.776,1.776,0,0,0,1.776,3.553"
                fill="#fff"
              />
            </g>
          </svg>