<svg
  width="32"
  height="32"
  viewBox="0 0 32 32"
  xmlns="http://www.w3.org/2000/svg"
>
  <g clip-path="url(#clip0_3_15)">
    <rect width="32" height="32" fill="none" />
    <g clip-path="url(#clip1_3_15)">
      <path
        d="M26.9853 12.8786C26.9945 12.8378 27 12.795 27 12.7542C27 12.7467 27 12.7393 27 12.73C27 12.6873 26.9926 12.6464 26.9816 12.6056C26.9816 12.6 26.9779 12.5944 26.9761 12.587C26.9632 12.5443 26.9466 12.5015 26.9227 12.4625L23.241 6.27121C23.2171 6.2322 23.1894 6.1969 23.1581 6.16533C23.1545 6.16161 23.1508 6.15789 23.1471 6.15418C23.1176 6.12446 23.0845 6.10031 23.0477 6.07988C23.0422 6.07616 23.0348 6.07245 23.0293 6.06873C22.9943 6.05015 22.9575 6.03344 22.9188 6.02229C22.9115 6.02043 22.9041 6.01858 22.8949 6.01672C22.8562 6.00743 22.8157 6.00186 22.7734 6C22.7716 6 22.7679 6 22.766 6H9.23211C9.23211 6 9.22659 6 9.22291 6C9.18241 6 9.14375 6.00557 9.1051 6.01486C9.09589 6.01672 9.08669 6.01858 9.07564 6.02229C9.03883 6.03344 9.00201 6.0483 8.96887 6.06687C8.96151 6.07059 8.95415 6.07616 8.94678 6.07988C8.91181 6.10031 8.87867 6.12446 8.84922 6.15232C8.84554 6.15604 8.84185 6.15975 8.83817 6.16347C8.80688 6.19505 8.77927 6.22848 8.75533 6.26749L5.07732 12.4625C5.05338 12.5015 5.03682 12.5443 5.02393 12.587C5.02209 12.5926 5.02025 12.5981 5.01841 12.6056C5.00736 12.6464 5.00184 12.6892 5 12.73C5 12.7375 5 12.7449 5 12.7542C5 12.7969 5.00552 12.8378 5.01473 12.8786C5.01473 12.8861 5.01841 12.8916 5.02025 12.8991C5.03129 12.9418 5.04786 12.9827 5.06995 13.0217C5.06995 13.0217 5.06995 13.0217 5.06995 13.0235C5.06995 13.0254 5.07363 13.0272 5.07547 13.0291C5.08652 13.0495 5.09941 13.07 5.11413 13.0885L15.5628 26.7808C15.5628 26.7808 15.5702 26.7864 15.572 26.7901C15.5941 26.818 15.6199 26.844 15.6475 26.8681C15.6493 26.87 15.6512 26.8718 15.6548 26.8755C15.6806 26.896 15.7082 26.9164 15.7395 26.9313C15.7432 26.9313 15.7469 26.9331 15.7487 26.935C15.7763 26.9498 15.8058 26.9591 15.8352 26.9684C15.8481 26.9721 15.861 26.9796 15.8739 26.9814C15.9144 26.9907 15.9549 26.9963 15.9954 26.9963C15.9972 26.9963 15.9991 26.9963 16.0028 26.9963C16.0046 26.9963 16.0064 26.9963 16.0101 26.9963C16.0506 26.9963 16.0911 26.9907 16.1316 26.9814C16.1445 26.9777 16.1574 26.9721 16.1703 26.9684C16.1997 26.9591 16.2292 26.9498 16.2568 26.935C16.2605 26.935 16.2642 26.9331 16.266 26.9313C16.2955 26.9146 16.3249 26.896 16.3507 26.8755C16.3525 26.8737 16.3544 26.8718 16.358 26.8681C16.3857 26.844 16.4114 26.818 16.4335 26.7901C16.4372 26.7864 16.4409 26.7845 16.4427 26.7808L26.8914 13.0885C26.9061 13.07 26.9172 13.0495 26.93 13.0291C26.93 13.0272 26.9337 13.0254 26.9356 13.0235C26.9356 13.0235 26.9356 13.0235 26.9356 13.0217C26.9577 12.9827 26.9724 12.9418 26.9853 12.8991C26.9871 12.8916 26.989 12.8861 26.9908 12.8786H26.9853ZM16.0009 24.7263L12.1149 13.3059H19.887L16.0009 24.7263ZM9.09589 7.87059L10.5667 12.1913H6.52606L9.09589 7.87059ZM17.0226 7.11455H21.9929L20.4687 11.5932L17.0226 7.11455ZM19.5317 12.1913H12.437L15.9052 7.47864L19.5317 12.1913ZM11.5221 11.5672L10.0053 7.11455H14.797L11.5221 11.5672ZM22.9041 7.87059L25.4739 12.1913H21.4333L22.9041 7.87059ZM6.67333 13.3059H10.9459L14.3847 23.4111L6.67333 13.3059ZM21.0541 13.3059H25.3267L17.6153 23.4111L21.0541 13.3059Z"
        fill="inherit"
      />
    </g>
  </g>
  <defs>
    <clipPath id="clip0_3_15">
      <rect width="32" height="32" fill="none" />
    </clipPath>
    <clipPath id="clip1_3_15">
      <rect width="22" height="21" fill="none" transform="translate(5 6)" />
    </clipPath>
  </defs>
</svg>
