<svg xmlns="http://www.w3.org/2000/svg" width="14" height="10" viewBox="0 0 14 10">
  <g id="noun-vote-4759576" transform="translate(-1.138 -4.125)">
    <g id="그룹_5523" data-name="그룹 5523" transform="translate(1.138 4.125)">
      <path id="패스_2812" data-name="패스 2812" d="M4.621,11.712H5.794l.2.1a2.425,2.425,0,0,0,2.082,1.171H9.777A1.119,1.119,0,0,0,10.9,11.871h0a1.733,1.733,0,0,0-.519-1.235,1.788,1.788,0,0,0-1.253-.511H8.488a.476.476,0,1,0,0,.952h.644a.812.812,0,0,1,.57.232.786.786,0,0,1,.236.561.16.16,0,0,1-.161.159H8.072a1.453,1.453,0,0,1-1.3-.79.485.485,0,0,0-.213-.211l-.432-.217a.488.488,0,0,0-.22-.052H4.621a.476.476,0,1,0,0,.952Z" transform="translate(-2.205 -6.315)" fill="inherit" fill-rule="evenodd"/>
      <path id="패스_2813" data-name="패스 2813" d="M4.69,5.8l3.151-.443a2.113,2.113,0,0,1,1.853.662l1.98,2.168a.489.489,0,0,0,.682.035.471.471,0,0,0,.036-.672l-1.98-2.168A3.086,3.086,0,0,0,7.7,4.417L4.553,4.86A.476.476,0,1,0,4.69,5.8Z" transform="translate(-2.205 -4.22)" fill="inherit" fill-rule="evenodd"/>
      <path id="패스_2814" data-name="패스 2814" d="M4.038,4.6a.48.48,0,0,0-.483-.476H1.621a.48.48,0,0,0-.483.476V9.681a.48.48,0,0,0,.483.476H3.555a.48.48,0,0,0,.483-.476Zm-.967.476V9.2H2.1V5.077Z" transform="translate(-1.138 -4.125)" fill="inherit" fill-rule="evenodd"/>
      <path id="패스_2815" data-name="패스 2815" d="M9.262,12.461l1.427,3.016a.485.485,0,0,0,.438.275h6.4a.485.485,0,0,0,.407-.22.469.469,0,0,0,.03-.457L15.022,8.857a.487.487,0,0,0-.643-.23l-2.61,1.2a.474.474,0,0,0-.234.633.487.487,0,0,0,.643.23l2.172-1L16.768,14.8H11.435l-1.3-2.741a.487.487,0,0,0-.643-.23.474.474,0,0,0-.233.633Z" transform="translate(-4.01 -5.752)" fill="inherit" fill-rule="evenodd"/>
      <path id="패스_2816" data-name="패스 2816" d="M11.311,18.375H8.733a.476.476,0,1,0,0,.952h2.578a.476.476,0,1,0,0-.952Z" transform="translate(-3.667 -9.327)" fill="inherit" fill-rule="evenodd"/>
    </g>
  </g>
</svg>
