<svg xmlns="http://www.w3.org/2000/svg" width="26" height="26" viewBox="0 0 26 26">
  <g id="그룹_5062" data-name="그룹 5062">
    <rect id="사각형_5990" data-name="사각형 5990" width="26" height="26" opacity="0"/>
  </g>
  <g id="mail-outline" transform="translate(-26.722 -73.067)">
    <g id="그룹_17" data-name="그룹 17" transform="translate(32 80)">
      <path id="패스_6" data-name="패스 6" d="M45.513,92.135H33.93A1.932,1.932,0,0,1,32,90.2V81.93A1.932,1.932,0,0,1,33.93,80H45.513a1.932,1.932,0,0,1,1.931,1.93V90.2A1.932,1.932,0,0,1,45.513,92.135ZM33.93,81.1a.83.83,0,0,0-.827.827V90.2a.83.83,0,0,0,.827.827H45.513a.83.83,0,0,0,.827-.827V81.93a.83.83,0,0,0-.827-.827Z" transform="translate(-32 -80)"/>
    </g>
    <g id="그룹_18" data-name="그룹 18" transform="translate(34.207 82.204)">
      <path id="패스_7" data-name="패스 7" d="M101.544,148.9a.537.537,0,0,1-.338-.117l-4.964-3.861a.553.553,0,0,1,.679-.872l4.623,3.6,4.626-3.6a.553.553,0,1,1,.679.872l-4.964,3.861A.554.554,0,0,1,101.544,148.9Z" transform="translate(-96.029 -143.929)"/>
    </g>
  </g>
</svg>
