<svg xmlns="http://www.w3.org/2000/svg" width="12" height="10.5" viewBox="0 0 12 10.5">
  <path id="패스_2696" data-name="패스 2696" d="M14.5,43.25a1.185,1.185,0,0,0-.415-.88,1.152,1.152,0,0,0,.184-.6,1.124,1.124,0,0,0-1.106-1.112H10.446a7.094,7.094,0,0,0,.276-1.274,3.842,3.842,0,0,0-.046-1.135A1.422,1.422,0,0,0,9.5,37.067a.944.944,0,0,0-1.06.718l-.23,1.065a2.635,2.635,0,0,1-.806,1.436l-1.244,1.2a.606.606,0,0,1-.438.162H5.4a.519.519,0,0,0-.484-.371H3.007a.513.513,0,0,0-.507.509v4.284a.513.513,0,0,0,.507.509H4.918a.5.5,0,0,0,.484-.371h.576l.092.139a2.544,2.544,0,0,0,2.119,1.2H8.4a13.914,13.914,0,0,0,3.063-.3.9.9,0,0,0,.322.069h1.129a1.124,1.124,0,0,0,1.106-1.112,1.169,1.169,0,0,0-.184-.625,1.137,1.137,0,0,0,.415-.857,1.152,1.152,0,0,0-.184-.6A1.067,1.067,0,0,0,14.5,43.25Zm-10.526,2.5a.463.463,0,1,1,.461-.463A.449.449,0,0,1,3.974,45.751Zm7.624-4.33h1.566a.371.371,0,0,1,0,.741H11.6a.371.371,0,0,1,0-.741Zm-.806,5.21a15.424,15.424,0,0,1-2.441.185H8.212a1.8,1.8,0,0,1-1.5-.834l-.184-.3a.367.367,0,0,0-.322-.185h-.76v-3.08h.3a1.423,1.423,0,0,0,.944-.371l1.267-1.2a3.523,3.523,0,0,0,1.013-1.829l.23-1.065a.179.179,0,0,1,.207-.139.688.688,0,0,1,.553.556,4.37,4.37,0,0,1,.046.926,6.8,6.8,0,0,1-.415,1.6.368.368,0,0,0,.023.347.393.393,0,0,0,.3.162h.622l-.023.093a2.033,2.033,0,0,1-2.1,1.806.384.384,0,0,0-.276.069A.353.353,0,0,0,8,43.62a.552.552,0,0,0,.069.278.351.351,0,0,0,.253.139h.161a2.832,2.832,0,0,0,1.75-.625,1.044,1.044,0,0,0,.415.695,1.152,1.152,0,0,0-.184.6,1.114,1.114,0,0,0,.392.857,1,1,0,0,0-.184.625A1.376,1.376,0,0,0,10.792,46.631Zm2.165-.069H11.828a.371.371,0,0,1,0-.741h1.129a.365.365,0,0,1,.369.371A.4.4,0,0,1,12.957,46.561Zm.207-1.482H11.6a.371.371,0,0,1,0-.741h1.566a.365.365,0,0,1,.369.371A.4.4,0,0,1,13.164,45.079Zm.23-1.459h-2.05a.371.371,0,0,1,0-.741h2.05a.371.371,0,0,1,0,.741Z" transform="translate(-2.5 -37.057)" fill="inherit"/>
</svg>

