<svg width="32" height="32" viewBox="0 0 32 32" xmlns="http://www.w3.org/2000/svg">
<rect width="32" height="32" fill="none"/>
<path d="M15.7778 4.55817C12.9791 4.55699 10.2812 5.60222 8.21373 7.48858C6.14629 9.37494 4.85881 11.9661 4.60416 14.7532C4.34952 17.5403 5.1461 20.3219 6.83746 22.5516C8.52882 24.7814 10.9927 26.2983 13.7453 26.8043C13.8974 26.834 14.0579 26.853 14.2146 26.8804C14.3713 26.9078 14.5395 26.9321 14.7046 26.9473C15.056 26.9823 15.4097 27.0036 15.7695 27.0036C15.9581 27.0036 16.1498 26.9983 16.3385 26.9884C16.4381 26.9831 16.534 26.9663 16.6329 26.9587C16.8276 26.9445 17.0208 26.925 17.2125 26.9002C17.3373 26.8834 17.462 26.8636 17.586 26.8431C20.3677 26.3909 22.8771 24.9079 24.6148 22.6891C26.3524 20.4704 27.1909 17.6787 26.9634 14.8697C26.7358 12.0607 25.4589 9.44041 23.3867 7.53034C21.3145 5.62026 18.5991 4.5605 15.7809 4.56197L15.7778 4.55817ZM17.3532 25.7211C17.2452 25.7386 17.1372 25.7576 17.0284 25.7713C16.8717 25.7918 16.7135 25.8048 16.5545 25.8177C16.3684 25.8319 16.1803 25.8415 15.9901 25.8466C15.8585 25.8466 15.7261 25.8504 15.5953 25.8466C15.3945 25.8466 15.1952 25.8314 14.9974 25.8162C14.8521 25.8048 14.7068 25.7934 14.5623 25.7751C14.4292 25.7591 14.2976 25.7355 14.166 25.7142C12.3952 25.4148 10.7464 24.6165 9.41321 23.4132C9.2702 23.2839 9.13101 23.1507 8.99865 23.0153C9.7269 21.8777 10.7297 20.9416 11.9146 20.2932C13.0996 19.6448 14.4286 19.305 15.7794 19.305C17.1301 19.305 18.4592 19.6448 19.6441 20.2932C20.8291 20.9416 21.8318 21.8777 22.5601 23.0153C21.1565 24.4482 19.3325 25.3961 17.3532 25.7211ZM23.4387 22.3117C22.6085 21.0363 21.4731 19.9882 20.1354 19.2625C18.7977 18.5368 17.3 18.1564 15.7782 18.1559C14.2563 18.1553 12.7584 18.5347 11.4202 19.2594C10.082 19.9842 8.94584 21.0315 8.11475 22.3064C6.86342 20.8415 6.05812 19.0487 5.79421 17.1403C5.53031 15.2318 5.81883 13.2878 6.62565 11.5383C7.43247 9.78876 8.7238 8.30713 10.3467 7.26883C11.9695 6.23053 13.8559 5.67906 15.7825 5.67973C17.7091 5.68039 19.5951 6.23317 21.2172 7.2726C22.8394 8.31203 24.1296 9.79456 24.9352 11.5446C25.7408 13.2947 26.028 15.239 25.7628 17.1472C25.4976 19.0554 24.691 20.8477 23.4387 22.3117Z"/>
<path d="M15.7778 8.68414C14.9633 8.68369 14.1669 8.92478 13.4894 9.37694C12.8119 9.82909 12.2837 10.472 11.9716 11.2244C11.6595 11.9767 11.5775 12.8047 11.7359 13.6037C11.8944 14.4026 12.2862 15.1367 12.8619 15.713C13.4375 16.2892 14.1711 16.6819 14.9699 16.8412C15.7687 17.0006 16.5968 16.9195 17.3495 16.6082C18.1022 16.2969 18.7457 15.7694 19.1986 15.0924C19.6515 14.4154 19.8934 13.6193 19.8939 12.8048C19.8935 11.7128 19.4598 10.6656 18.6881 9.8931C17.9165 9.12056 16.8698 8.68576 15.7778 8.68414ZM15.7778 15.7798C15.1888 15.7802 14.6129 15.6059 14.1229 15.279C13.6329 14.952 13.251 14.487 13.0253 13.9429C12.7997 13.3988 12.7405 12.7999 12.8554 12.2222C12.9702 11.6444 13.2538 11.1137 13.6703 10.6972C14.0868 10.2807 14.6175 9.99707 15.1953 9.88226C15.773 9.76745 16.3718 9.82661 16.916 10.0522C17.4601 10.2779 17.9251 10.6598 18.252 11.1498C18.579 11.6398 18.7533 12.2157 18.7529 12.8048C18.7515 13.5934 18.4376 14.3492 17.88 14.9069C17.3223 15.4645 16.5664 15.7784 15.7778 15.7798Z"/>
</svg>
