<svg xmlns="http://www.w3.org/2000/svg" width="28" height="28" viewBox="0 0 28 28">
  <g id="그룹_5513" data-name="그룹 5513" transform="translate(7.418 7.321)">
    <g id="패스_2154" data-name="패스 2154" transform="translate(1.061 0.195) rotate(45)" fill="inherit" stroke-linecap="round">
      <path d="M.611,0,16.5,0a.691.691,0,0,1,.611.749A.69.69,0,0,1,16.5,1.5L.611,1.5A.691.691,0,0,1,0,.749.69.69,0,0,1,.611,0Z" stroke="none"/>
      <path d="M 0.6110992431640625 2.384185791015625e-07 C 0.6111412048339844 2.384185791015625e-07 0.6111335754394531 2.384185791015625e-07 0.611175537109375 2.384185791015625e-07 L 16.50386238098145 0.002475261688232422 C 16.84144973754883 0.002525210380554199 17.11515045166016 0.3378002643585205 17.11520004272461 0.751325249671936 C 17.11523818969727 1.164862751960754 16.84164619445801 1.50005030632019 16.50402450561523 1.500000238418579 L 0.6113376617431641 1.497525215148926 C 0.2737503051757812 1.497475266456604 3.814697265625e-05 1.162200212478638 0 0.7486752271652222 C -3.814697265625e-05 0.3351882696151733 0.2735691070556641 2.384185791015625e-07 0.6110992431640625 2.384185791015625e-07 Z" stroke="none" fill="#fff"/>
    </g>
    <g id="패스_2155" data-name="패스 2155" transform="translate(13.163 1.061) rotate(135)" fill="inherit">
      <path d="M.611,0,16.5,0a.69.69,0,0,1,.611.749A.691.691,0,0,1,16.5,1.5L.611,1.5A.69.69,0,0,1,0,.751.691.691,0,0,1,.611,0Z" stroke="none"/>
      <path d="M 16.50411796569824 -1.192092895507812e-07 C 16.8416805267334 -5.006790161132812e-05 17.11530494689941 0.3351374864578247 17.11525535583496 0.7486749291419983 C 17.1152172088623 1.162199974060059 16.84152984619141 1.497474908828735 16.50395584106445 1.497524976730347 L 0.6111431121826172 1.5 C 0.2735805511474609 1.500049948692322 -4.38690185546875e-05 1.164862394332886 5.7220458984375e-06 0.7513249516487122 C 4.38690185546875e-05 0.3377999067306519 0.2737312316894531 0.002524971961975098 0.6112937927246094 0.00247490406036377 L 16.50411796569824 -1.192092895507812e-07 Z" stroke="none" fill="#fff"/>
    </g>
  </g>
</svg>
