<svg xmlns="http://www.w3.org/2000/svg" width="32" height="32" viewBox="0 0 32 32">
  <g id="그룹_5784" data-name="그룹 5784" transform="translate(-7.357 -6.758)">
    <g id="그룹_3593" data-name="그룹 3593" transform="translate(11.599 11)">
      <g id="list-2">
        <path id="패스_872" data-name="패스 872" d="M22.809,4.1H19.417V.707A.707.707,0,0,0,18.71,0h-18A.707.707,0,0,0,0,.707v18a.707.707,0,0,0,.707.707H4.1v3.392a.707.707,0,0,0,.707.707h18a.707.707,0,0,0,.707-.707v-18A.707.707,0,0,0,22.809,4.1Zm-.707,18H5.514V19.417h13.2a.708.708,0,0,0,.707-.707V5.514H22.1ZM1.415,1.415H18V18H1.415Zm0,0" transform="translate(0 0)" />
        <path id="패스_873" data-name="패스 873" d="M89.66,109.494h1.2a.606.606,0,0,0,0-1.213h-1.2A.606.606,0,0,0,89.66,109.494Zm0,0" transform="translate(-84.889 -103.262)" />
        <path id="패스_874" data-name="패스 874" d="M180.091,109.494h4.865a.606.606,0,0,0,0-1.213h-4.865A.606.606,0,0,0,180.091,109.494Zm0,0" transform="translate(-170.735 -103.262)" />
        <path id="패스_875" data-name="패스 875" d="M89.576,197.189h1.2a.606.606,0,0,0,0-1.213h-1.2A.606.606,0,0,0,89.576,197.189Zm0,0" transform="translate(-84.805 -186.893)" />
        <path id="패스_876" data-name="패스 876" d="M180.165,197.189h4.865a.606.606,0,0,0,0-1.213h-4.865A.606.606,0,0,0,180.165,197.189Zm0,0" transform="translate(-170.809 -186.893)" />
        <path id="패스_877" data-name="패스 877" d="M89.587,284.884h1.2a.606.606,0,0,0,0-1.213h-1.2A.606.606,0,0,0,89.587,284.884Zm0,0" transform="translate(-84.816 -270.524)" />
        <path id="패스_878" data-name="패스 878" d="M180.166,284.884h4.865a.606.606,0,0,0,0-1.213h-4.865A.606.606,0,0,0,180.166,284.884Zm0,0" transform="translate(-170.81 -270.524)" />
      </g>
    </g>
  </g>
</svg>
