<svg width="36" height="36" viewBox="0 0 36 36"  xmlns="http://www.w3.org/2000/svg">
<rect width="36" height="36" fill="none"/>
<path d="M18.0096 32C17.8416 32 17.6736 31.9765 17.5056 31.9178C17.1024 31.777 16.856 31.5422 16.576 31.2839C14.0561 28.8774 7.96339 22.9726 5.86903 20.073C2.9459 16.023 3.50588 10.4234 7.16821 7.05427C8.80337 5.56339 10.7633 4.85904 12.8241 5.02339C14.6944 5.176 16.5312 6.06818 18.0096 7.51209C19.4767 6.06818 21.2575 5.21122 23.1167 5.04687C25.1774 4.85904 27.1598 5.55165 28.8285 7.05427C32.4797 10.3178 33.0621 16.0465 30.1389 20.0847C28.0334 23.0078 21.9407 28.9009 19.4319 31.2956C19.152 31.5657 18.9056 31.8122 18.5024 31.9296C18.3456 31.9765 18.1776 32 18.0096 32ZM12.2417 7.34775C10.9425 7.34775 9.71055 7.85253 8.64657 8.82688C5.86903 11.3743 5.44344 15.6004 7.6498 18.6643C9.60975 21.3761 15.4784 27.0695 17.9984 29.4761C20.0479 27.5274 26.331 21.4582 28.347 18.6643C30.5533 15.6121 30.1165 11.3038 27.3614 8.83862C26.1518 7.75862 24.7518 7.26557 23.2959 7.38296C21.6719 7.52383 20.0591 8.47471 18.872 9.96558C18.4464 10.4938 17.584 10.5056 17.1472 9.96558C15.9376 8.45123 14.3025 7.50035 12.6449 7.37122C12.5105 7.37122 12.3649 7.35948 12.2305 7.35948L12.2417 7.34775Z"/>
</svg>
