<svg xmlns="http://www.w3.org/2000/svg" width="32" height="32" viewBox="0 0 32 32">
  <g id="그룹_5112" data-name="그룹 5112" transform="translate(-7006.27 -4261.27)">
    <g id="그룹_5109" data-name="그룹 5109" transform="translate(7006 4261)">
      <rect id="사각형_5990" data-name="사각형 5990" width="32" height="32" transform="translate(0.27 0.27)" fill="inherit" opacity="0"/>
      <g id="그룹_5043" data-name="그룹 5043" transform="translate(5.994 5.994)">
        <rect id="사각형_5985" data-name="사각형 5985" width="20" height="20" transform="translate(0.275 0.275)" fill="inherit" opacity="0"/>
      </g>
    </g>
    <g id="그룹_5110" data-name="그룹 5110" transform="translate(7015.419 4266.994)">
      <g id="noun-ticket-error-5564952" transform="translate(0 0)">
        <g id="그룹_5108" data-name="그룹 5108" transform="translate(0 0)">
          <path id="패스_2772" data-name="패스 2772" d="M121.016,160.3a1.2,1.2,0,0,0,1.2,1.192h2.766a2.135,2.135,0,0,1,1.035-1.681,2.5,2.5,0,0,1,2.559-.071,2.409,2.409,0,0,1,1.183,1.751h2.792a1.2,1.2,0,0,0,1.2-1.192V146.034H121.016Zm6.365-11.666a4.034,4.034,0,1,1-4.034,4.034A4.036,4.036,0,0,1,127.381,148.636Z" transform="translate(-121.016 -140.943)" fill="#fff"/>
          <path id="패스_2774" data-name="패스 2774" d="M132.546,38.031h-2.791a2.4,2.4,0,0,1-4.753,0h-2.791a1.2,1.2,0,0,0-1.2,1.192V42.46h12.727V39.223A1.2,1.2,0,0,0,132.546,38.031Z" transform="translate(-121.015 -38.031)" fill="#fff"/>
        </g>
      </g>
      <path id="패스_2775" data-name="패스 2775" d="M-3.14-6.456v.4a1.515,1.515,0,0,0-1.144.774,1.422,1.422,0,0,0,.527,1.795,4.565,4.565,0,0,0,.617.308v1.562a1.054,1.054,0,0,1-.692-.6l-.76.322A1.928,1.928,0,0,0-3.14-.77v.39h.671V-.743a1.5,1.5,0,0,0,.363-2.911c-.123-.048-.247-.089-.363-.137v-1.4a.836.836,0,0,1,.493.329l.678-.473a1.824,1.824,0,0,0-1.171-.7v-.425Zm-.4,1.534a.579.579,0,0,1,.4-.288v1.13A.986.986,0,0,1-3.3-4.168.623.623,0,0,1-3.544-4.922Zm1.076,3.343V-2.914l.1.034A.669.669,0,0,1-2.468-1.579Z" transform="translate(9.199 15.485)" fill="#fff"/>
    </g>
  </g>
</svg>
