<svg xmlns="http://www.w3.org/2000/svg" width="24" height="24" viewBox="0 0 24 24">
  <path id="photo_library_FILL0_wght100_GRAD-25_opsz24" d="M170.779-807.555h12.36l-3.767-5.035-3.785,4.694-2.4-2.782Zm-1.7,4.656a2.106,2.106,0,0,1-1.551-.626,2.106,2.106,0,0,1-.626-1.551v-15.748a2.106,2.106,0,0,1,.626-1.551,2.106,2.106,0,0,1,1.551-.626h15.748a2.106,2.106,0,0,1,1.551.626,2.106,2.106,0,0,1,.626,1.551v15.748a2.106,2.106,0,0,1-.626,1.551,2.106,2.106,0,0,1-1.551.626Zm0-.965h15.748a1.158,1.158,0,0,0,.833-.379,1.158,1.158,0,0,0,.379-.833v-15.748a1.158,1.158,0,0,0-.379-.833,1.158,1.158,0,0,0-.833-.379H169.076a1.158,1.158,0,0,0-.833.379,1.158,1.158,0,0,0-.379.833v15.748a1.158,1.158,0,0,0,.379.833A1.158,1.158,0,0,0,169.076-803.864Zm-3.9,4.864a2.106,2.106,0,0,1-1.551-.626,2.106,2.106,0,0,1-.626-1.551V-817.89h.965v16.713a1.158,1.158,0,0,0,.379.833,1.158,1.158,0,0,0,.833.379H181.89V-799Zm2.688-23.035v0Z" transform="translate(-163 823)" fill="inhert"/>
</svg>
