<svg id="그룹_4986" data-name="그룹 4986" xmlns="http://www.w3.org/2000/svg" xmlns:xlink="http://www.w3.org/1999/xlink" width="40" height="37.882" viewBox="0 0 40 37.882">
  <defs>
    <clipPath id="clip-path">
      <rect id="사각형_5974" data-name="사각형 5974" width="40" height="37.882" fill="none"/>
    </clipPath>
  </defs>
  <g id="그룹_4985" data-name="그룹 4985" clip-path="url(#clip-path)">
    <path id="패스_2705" data-name="패스 2705" d="M146.717,417.076a4.739,4.739,0,0,0-1.2-4.726,3.8,3.8,0,0,0,1.2,4.726" transform="translate(-138.291 -392.992)" fill="#ffc669"/>
    <path id="패스_2706" data-name="패스 2706" d="M103.292,354.758a3.743,3.743,0,0,0,.454,4.789,4.878,4.878,0,0,0-.454-4.789" transform="translate(-97.814 -338.104)" fill="#ffc669"/>
    <path id="패스_2707" data-name="패스 2707" d="M38.394,0c-2.254,2.341-2.551,4.185-1.91,6.478.995-.959,1.833-3.717,1.91-6.478" transform="translate(-34.489)" fill="#ffc669"/>
    <path id="패스_2708" data-name="패스 2708" d="M70.907,294.858c-1.215.722-1.079,3.042-.361,4.249a3.532,3.532,0,0,0,.361-4.249" transform="translate(-66.713 -281.016)" fill="#ffc669"/>
    <path id="패스_2709" data-name="패스 2709" d="M51.519,234.913a3.063,3.063,0,0,0-1.472,3.741c.934-.757,2.061-2.355,1.472-3.741" transform="translate(-47.55 -223.885)" fill="#ffc669"/>
    <path id="패스_2710" data-name="패스 2710" d="M45.976,167.54a3.509,3.509,0,0,0-1.811,3.727,3.28,3.28,0,0,0,1.811-3.727" transform="translate(-42.059 -159.675)" fill="#ffc669"/>
    <path id="패스_2711" data-name="패스 2711" d="M43.8,105.515c.96-.441,2.4-2.283,2.134-3.783-.969.291-2.192,2.079-2.134,3.783" transform="translate(-41.745 -96.956)" fill="#ffc669"/>
    <path id="패스_2712" data-name="패스 2712" d="M85.682,488.827c-1.451-1.37-3.766-1.88-4.858-1.433a3.429,3.429,0,0,0,4.858,1.433" transform="translate(-77.03 -464.363)" fill="#ffc669"/>
    <path id="패스_2713" data-name="패스 2713" d="M200.027,478.106c.133-1.268-.375-3.438-1.87-3.846-.362.694-.429,2.661,1.87,3.846" transform="translate(-188.673 -451.995)" fill="#ffc669"/>
    <path id="패스_2714" data-name="패스 2714" d="M148.632,548.406c-1.043-.531-3.544-1.259-5.134-.454a4,4,0,0,0,5.134.454" transform="translate(-136.761 -521.886)" fill="#ffc669"/>
    <path id="패스_2715" data-name="패스 2715" d="M255.145,517.948a3.533,3.533,0,0,0-2.658-3.363c-.2.7.059,2.6,2.658,3.363" transform="translate(-240.582 -490.428)" fill="#ffc669"/>
    <path id="패스_2716" data-name="패스 2716" d="M205.855,586.05c-1.156-.324-4.315-.706-5.689.4a4.39,4.39,0,0,0,5.689-.4" transform="translate(-190.769 -558.218)" fill="#ffc669"/>
    <path id="패스_2717" data-name="패스 2717" d="M325.267,549.529c-.332-1.652-2.026-2.39-3.355-2.7-.115,1.64,1.558,2.565,3.355,2.7" transform="translate(-306.794 -521.161)" fill="#ffc669"/>
    <path id="패스_2718" data-name="패스 2718" d="M291.847,608.2c3.39,1.317,4.757.069,4.769-.722-1.2-.1-4.073-.273-4.769.722" transform="translate(-278.146 -578.886)" fill="#ffc669"/>
    <path id="패스_2719" data-name="패스 2719" d="M39.949,410.669c-.123,2.81,2.794,2.656,4.165,2.674-.43-.591-2.82-2.73-4.165-2.674" transform="translate(-38.07 -391.389)" fill="#ffc669"/>
    <path id="패스_2720" data-name="패스 2720" d="M7.332,327.793a3.312,3.312,0,0,0,3.641,3.4c-.553-1.105-2.024-3.2-3.641-3.4" transform="translate(-6.984 -312.405)" fill="#ffc669"/>
    <path id="패스_2721" data-name="패스 2721" d="M5.433,253.4c-.255-.987-.614-2.736-2.209-3.587A2.874,2.874,0,0,0,5.433,253.4" transform="translate(-2.956 -238.082)" fill="#ffc669"/>
    <path id="패스_2722" data-name="패스 2722" d="M1.984,185.22c-.082-1.071-.759-3.2-1.78-3.535a2.526,2.526,0,0,0,1.78,3.535" transform="translate(0 -173.156)" fill="#ffc669"/>
    <path id="패스_2723" data-name="패스 2723" d="M11.577,105.272c.079-.977.18-3.261-1.125-4.6-.924,3.08.619,4.352,1.125,4.6" transform="translate(-9.686 -95.943)" fill="#ffc669"/>
    <path id="패스_2724" data-name="패스 2724" d="M668.373,422.108a4.739,4.739,0,0,1,1.2-4.726,3.8,3.8,0,0,1-1.2,4.726" transform="translate(-636.799 -397.788)" fill="#ffc669"/>
    <path id="패스_2725" data-name="패스 2725" d="M717.74,359.79a3.743,3.743,0,0,1-.454,4.789,4.879,4.879,0,0,1,.454-4.789" transform="translate(-683.217 -342.9)" fill="#ffc669"/>
    <path id="패스_2726" data-name="패스 2726" d="M768.874,5.032c2.254,2.341,2.551,4.185,1.91,6.478-.995-.959-1.833-3.717-1.91-6.478" transform="translate(-732.779 -4.796)" fill="#ffc669"/>
    <path id="패스_2727" data-name="패스 2727" d="M751.382,299.89c1.215.722,1.079,3.042.361,4.249a3.532,3.532,0,0,1-.361-4.249" transform="translate(-715.576 -285.812)" fill="#ffc669"/>
    <path id="패스_2728" data-name="패스 2728" d="M764.194,239.944a3.063,3.063,0,0,1,1.472,3.741c-.934-.757-2.061-2.355-1.472-3.741" transform="translate(-728.163 -228.68)" fill="#ffc669"/>
    <path id="패스_2729" data-name="패스 2729" d="M766.872,172.572a3.509,3.509,0,0,1,1.811,3.727,3.28,3.28,0,0,1-1.811-3.727" transform="translate(-730.789 -164.471)" fill="#ffc669"/>
    <path id="패스_2730" data-name="패스 2730" d="M764.235,110.547c-.96-.441-2.4-2.283-2.134-3.783.969.291,2.193,2.079,2.134,3.783" transform="translate(-726.293 -101.752)" fill="#ffc669"/>
    <path id="패스_2731" data-name="패스 2731" d="M667.752,493.859c1.451-1.37,3.766-1.88,4.858-1.433a3.429,3.429,0,0,1-4.858,1.433" transform="translate(-636.404 -469.159)" fill="#ffc669"/>
    <path id="패스_2732" data-name="패스 2732" d="M609.785,483.138c-.133-1.268.375-3.438,1.871-3.847.362.694.429,2.661-1.871,3.847" transform="translate(-581.139 -456.791)" fill="#ffc669"/>
    <path id="패스_2733" data-name="패스 2733" d="M599.205,553.438c1.043-.531,3.544-1.259,5.134-.454a4,4,0,0,1-5.134.454" transform="translate(-571.075 -526.682)" fill="#ffc669"/>
    <path id="패스_2734" data-name="패스 2734" d="M541.844,522.98a3.533,3.533,0,0,1,2.658-3.363c.2.7-.059,2.6-2.658,3.363" transform="translate(-516.407 -495.224)" fill="#ffc669"/>
    <path id="패스_2735" data-name="패스 2735" d="M530.706,591.081c1.156-.324,4.315-.706,5.689.4a4.39,4.39,0,0,1-5.689-.4" transform="translate(-505.792 -563.013)" fill="#ffc669"/>
    <path id="패스_2736" data-name="패스 2736" d="M458.565,554.561c.332-1.652,2.026-2.39,3.355-2.7.115,1.64-1.558,2.565-3.355,2.7" transform="translate(-437.038 -525.957)" fill="#ffc669"/>
    <path id="패스_2737" data-name="패스 2737" d="M463.4,613.233c-3.39,1.317-4.757.069-4.769-.722,1.2-.1,4.073-.273,4.769.722" transform="translate(-437.105 -583.681)" fill="#ffc669"/>
    <path id="패스_2738" data-name="패스 2738" d="M727.486,415.7c.123,2.81-2.794,2.656-4.164,2.674.43-.591,2.82-2.73,4.164-2.674" transform="translate(-689.365 -396.184)" fill="#ffc669"/>
    <path id="패스_2739" data-name="패스 2739" d="M770.741,332.825a3.312,3.312,0,0,1-3.641,3.4c.553-1.105,2.024-3.2,3.641-3.4" transform="translate(-731.089 -317.201)" fill="#ffc669"/>
    <path id="패스_2740" data-name="패스 2740" d="M799.287,258.428c.255-.987.614-2.736,2.209-3.587a2.874,2.874,0,0,1-2.209,3.587" transform="translate(-761.764 -242.877)" fill="#ffc669"/>
    <path id="패스_2741" data-name="패스 2741" d="M809.793,190.252c.082-1.071.759-3.2,1.78-3.535a2.526,2.526,0,0,1-1.78,3.535" transform="translate(-771.777 -177.952)" fill="#ffc669"/>
    <path id="패스_2742" data-name="패스 2742" d="M810.941,110.3c-.079-.977-.181-3.261,1.125-4.6.924,3.08-.619,4.352-1.125,4.6" transform="translate(-772.832 -100.738)" fill="#ffc669"/>
  </g>
</svg>
