<svg xmlns="http://www.w3.org/2000/svg" width="10" height="10" viewBox="0 0 10 10">
  <path id="event_available_FILL0_wght300_GRAD-25_opsz48" d="M147.1-853.289l-1.84-1.786.45-.441,1.389,1.336,2.662-2.611.456.45Zm-3.5,2.058a.806.806,0,0,1-.583-.243.774.774,0,0,1-.248-.571v-8.373a.774.774,0,0,1,.248-.571.807.807,0,0,1,.584-.243h8.335a.808.808,0,0,1,.584.243.774.774,0,0,1,.248.571v8.373a.774.774,0,0,1-.248.571.806.806,0,0,1-.583.243Zm0-.636h8.335a.177.177,0,0,0,.125-.056.171.171,0,0,0,.057-.123v-5.735h-8.7v5.735a.171.171,0,0,0,.057.123A.177.177,0,0,0,143.6-851.867Zm-.183-6.549h8.7v-2a.171.171,0,0,0-.057-.123.177.177,0,0,0-.125-.056H143.6a.177.177,0,0,0-.125.056.171.171,0,0,0-.057.123Zm0,0v0Z" transform="translate(-142.771 861.231)" fill="inherit"/>
</svg>
